<mxfile host="drawio-plugin" modified="2022-07-07T14:01:49.094Z" agent="5.0 (Macintosh; Intel Mac OS X 10_15_7) AppleWebKit/537.36 (KHTML, like Gecko) Chrome/97.0.4692.45 Safari/537.36" etag="rb5LFfHftWdPoQRKKbvC" version="15.5.4" type="embed"><diagram id="23iRSUPoRavnBvh4doch" name="Page-1"><mxGraphModel dx="997" dy="-356" grid="1" gridSize="10" guides="1" tooltips="1" connect="1" arrows="1" fold="1" page="1" pageScale="1" pageWidth="827" pageHeight="1169" math="0" shadow="0"><root><mxCell id="0"/><mxCell id="1" parent="0"/><mxCell id="2" value="" style="whiteSpace=wrap;html=1;fontSize=18;fillColor=#f5f5f5;strokeColor=#7EA6E0;fontColor=#333333;arcSize=4;" vertex="1" parent="1"><mxGeometry x="184.5" y="1208" width="460" height="271.87" as="geometry"/></mxCell><mxCell id="3" value="" style="shape=manualInput;whiteSpace=wrap;html=1;flipV=0;flipH=1;rotation=90;size=16;fillColor=#F5F5F5;strokeColor=#6c8ebf;" vertex="1" parent="1"><mxGeometry x="242.37" y="1150" width="16.76" height="132.5" as="geometry"/></mxCell><mxCell id="4" value="&lt;b&gt;Socio-Technical&lt;br&gt;&lt;/b&gt;" style="text;html=1;strokeColor=none;fillColor=none;align=center;verticalAlign=middle;whiteSpace=wrap;fontSize=14;" vertex="1" parent="1"><mxGeometry x="183" y="1204.87" width="117" height="20" as="geometry"/></mxCell><mxCell id="5" value="Designer(s)" style="shape=umlActor;verticalLabelPosition=bottom;verticalAlign=top;html=1;outlineConnect=0;" vertex="1" parent="1"><mxGeometry x="208.5" y="1291.3700000000001" width="16" height="40" as="geometry"/></mxCell><mxCell id="6" value="" style="endArrow=none;dashed=1;html=1;dashPattern=1 3;strokeWidth=2;exitX=0.173;exitY=1;exitDx=0;exitDy=0;exitPerimeter=0;" edge="1" parent="1"><mxGeometry width="50" height="50" relative="1" as="geometry"><mxPoint x="298.0799999999999" y="1479.87" as="sourcePoint"/><mxPoint x="298.5" y="1228" as="targetPoint"/></mxGeometry></mxCell><mxCell id="7" value="User(s)" style="shape=umlActor;verticalLabelPosition=bottom;verticalAlign=top;html=1;outlineConnect=0;" vertex="1" parent="1"><mxGeometry x="266.36999999999995" y="1291.3700000000001" width="16" height="40" as="geometry"/></mxCell><mxCell id="8" value="Stakeholder(s)" style="shape=umlActor;verticalLabelPosition=bottom;verticalAlign=top;html=1;outlineConnect=0;" vertex="1" parent="1"><mxGeometry x="233.5" y="1368" width="16" height="40" as="geometry"/></mxCell><mxCell id="9" value="" style="group;" vertex="1" connectable="0" parent="1"><mxGeometry x="344.5" y="1361" width="281.37" height="70.5" as="geometry"/></mxCell><mxCell id="10" value="" style="whiteSpace=wrap;html=1;fontSize=18;fillColor=#f5f5f5;strokeColor=#7EA6E0;fontColor=#333333;arcSize=4;" vertex="1" parent="9"><mxGeometry x="10" width="271.37" height="70.13" as="geometry"/></mxCell><mxCell id="11" value="" style="shape=manualInput;whiteSpace=wrap;html=1;flipV=1;flipH=1;rotation=90;size=13;fillColor=#F5F5F5;strokeColor=#6c8ebf;direction=west;" vertex="1" parent="9"><mxGeometry x="52.870000000000005" y="10.63000000000011" width="16.76" height="102.5" as="geometry"/></mxCell><mxCell id="12" value="&lt;b&gt;Interface&lt;/b&gt;" style="text;html=1;strokeColor=none;fillColor=none;align=center;verticalAlign=middle;whiteSpace=wrap;fontSize=14;" vertex="1" parent="9"><mxGeometry x="12" y="50.5" width="87.37" height="20" as="geometry"/></mxCell><mxCell id="13" value="Output" style="shape=cylinder;whiteSpace=wrap;html=1;boundedLbl=1;backgroundOutline=1;" vertex="1" parent="9"><mxGeometry x="198.75" y="16.13000000000011" width="60" height="30" as="geometry"/></mxCell><mxCell id="14" value="Input" style="shape=cylinder;whiteSpace=wrap;html=1;boundedLbl=1;backgroundOutline=1;" vertex="1" parent="9"><mxGeometry x="26" y="16.13000000000011" width="60" height="30" as="geometry"/></mxCell><mxCell id="15" value="Receive output" style="endArrow=classic;html=1;labelBackgroundColor=none;exitX=0.5;exitY=1;exitDx=0;exitDy=0;edgeStyle=orthogonalEdgeStyle;" edge="1" parent="1" source="13"><mxGeometry x="0.2711" y="-9" width="50" height="50" relative="1" as="geometry"><mxPoint x="575.8699999999998" y="1423" as="sourcePoint"/><mxPoint x="299.5" y="1453" as="targetPoint"/><Array as="points"><mxPoint x="573.5" y="1453"/></Array><mxPoint as="offset"/></mxGeometry></mxCell><mxCell id="16" value="Structure output" style="endArrow=block;html=1;shape=flexArrow;endSize=2.658333333333333;targetPerimeterSpacing=0;sourcePerimeterSpacing=0;startSize=6;width=2.2222222222222223;endWidth=4.656607700312175;shadow=0;labelBackgroundColor=none;fontSize=12;opacity=75;entryX=0.85;entryY=0.95;entryDx=0;entryDy=0;entryPerimeter=0;" edge="1" parent="1" target="13"><mxGeometry x="-0.3559" y="10" width="50" height="50" relative="1" as="geometry"><mxPoint x="299.5" y="1473" as="sourcePoint"/><mxPoint x="568.3100000000002" y="1563" as="targetPoint"/><mxPoint as="offset"/><Array as="points"><mxPoint x="594.5" y="1473"/></Array></mxGeometry></mxCell><mxCell id="17" value="Construct &lt;br&gt;input" style="endArrow=block;html=1;shape=flexArrow;endSize=2.658333333333333;targetPerimeterSpacing=0;sourcePerimeterSpacing=0;startSize=6;width=2.2222222222222223;endWidth=4.656607700312175;shadow=0;labelBackgroundColor=none;fontSize=12;opacity=75;" edge="1" parent="1"><mxGeometry x="-10.5" y="-522" width="50" height="50" as="geometry"><mxPoint x="299.5" y="1385" as="sourcePoint"/><mxPoint x="370.5" y="1385.0913861386139" as="targetPoint"/><mxPoint x="-5" y="-17" as="offset"/></mxGeometry></mxCell><mxCell id="18" style="edgeStyle=orthogonalEdgeStyle;orthogonalLoop=1;jettySize=auto;html=1;entryX=0;entryY=0.877;entryDx=0;entryDy=0;entryPerimeter=0;" edge="1" parent="1" source="14" target="22"><mxGeometry relative="1" as="geometry"><mxPoint x="429.3873200000003" y="1318.0330000000001" as="targetPoint"/><Array as="points"><mxPoint x="400.5" y="1332"/><mxPoint x="433.5" y="1332"/></Array></mxGeometry></mxCell><mxCell id="19" value="Produce" style="endArrow=classic;html=1;labelBackgroundColor=none;entryX=0;entryY=0.7;entryDx=0;entryDy=0;" edge="1" parent="1"><mxGeometry x="-0.1545" y="-8" width="50" height="50" relative="1" as="geometry"><mxPoint x="299.5" y="1400" as="sourcePoint"/><mxPoint x="370.5" y="1400.1299999999999" as="targetPoint"/><mxPoint as="offset"/></mxGeometry></mxCell><mxCell id="20" value="" style="endArrow=classic;html=1;exitX=0.998;exitY=0.887;exitDx=0;exitDy=0;exitPerimeter=0;edgeStyle=orthogonalEdgeStyle;entryX=0.5;entryY=0;entryDx=0;entryDy=0;" edge="1" parent="1" source="22" target="13"><mxGeometry width="50" height="50" relative="1" as="geometry"><mxPoint x="541.5039199999999" y="1318.207" as="sourcePoint"/><mxPoint x="599.5" y="1318" as="targetPoint"/><Array as="points"><mxPoint x="573.5" y="1334"/><mxPoint x="573.5" y="1348"/><mxPoint x="573.5" y="1348"/></Array></mxGeometry></mxCell><mxCell id="21" value="" style="group;" vertex="1" connectable="0" parent="1"><mxGeometry x="433.14" y="1218" width="110" height="130" as="geometry"/></mxCell><mxCell id="22" value="" style="whiteSpace=wrap;html=1;fontSize=18;fillColor=#f5f5f5;strokeColor=#7EA6E0;fontColor=#333333;arcSize=4;" vertex="1" parent="21"><mxGeometry y="3.130000000000109" width="110" height="126.87" as="geometry"/></mxCell><mxCell id="23" value="" style="shape=manualInput;whiteSpace=wrap;html=1;flipV=0;flipH=1;rotation=90;size=16;fillColor=#F5F5F5;strokeColor=#6c8ebf;" vertex="1" parent="21"><mxGeometry x="42.870000000000005" y="-39.86999999999989" width="16.76" height="102.5" as="geometry"/></mxCell><mxCell id="24" value="&lt;b&gt;System&lt;/b&gt;" style="text;html=1;strokeColor=none;fillColor=none;align=center;verticalAlign=middle;whiteSpace=wrap;fontSize=14;" vertex="1" parent="21"><mxGeometry x="3" width="78.37" height="20" as="geometry"/></mxCell><mxCell id="25" style="orthogonalLoop=1;jettySize=auto;html=1;entryX=0.998;entryY=0.885;entryDx=0;entryDy=0;entryPerimeter=0;" edge="1" parent="21" source="30" target="22"><mxGeometry as="geometry"><mxPoint x="114.68000000000006" y="70.13000000000011" as="targetPoint"/><mxPoint x="94.75" y="70" as="sourcePoint"/></mxGeometry></mxCell><mxCell id="26" value="" style="endArrow=classic;html=1;exitX=0.003;exitY=0.881;exitDx=0;exitDy=0;exitPerimeter=0;" edge="1" parent="21" source="22" target="30"><mxGeometry x="-0.67999999999995" y="39.90000000000009" width="50" height="50" as="geometry"><mxPoint x="1.1368683772161603e-13" y="110.0300000000002" as="sourcePoint"/><mxPoint x="19.32000000000005" y="109.90000000000009" as="targetPoint"/></mxGeometry></mxCell><mxCell id="27" value="Code" style="whiteSpace=wrap;html=1;" vertex="1" parent="21"><mxGeometry x="32.25" y="25" width="38" height="20" as="geometry"/></mxCell><mxCell id="28" value="Processor" style="whiteSpace=wrap;html=1;" vertex="1" parent="21"><mxGeometry x="13.870000000000005" y="65" width="74.75" height="20" as="geometry"/></mxCell><mxCell id="29" value="" style="endArrow=classic;startArrow=classic;html=1;entryX=0.5;entryY=1;entryDx=0;entryDy=0;" edge="1" parent="21" source="28" target="27"><mxGeometry width="50" height="50" as="geometry"><mxPoint x="57.37666666666655" y="60" as="sourcePoint"/><mxPoint x="17.550000000000182" y="45" as="targetPoint"/></mxGeometry></mxCell><mxCell id="30" value="Data" style="shape=cylinder;whiteSpace=wrap;html=1;boundedLbl=1;backgroundOutline=1;" vertex="1" parent="21"><mxGeometry x="31.25" y="105.13000000000011" width="41" height="19.87" as="geometry"/></mxCell><mxCell id="31" value="" style="endArrow=classic;startArrow=classic;html=1;" edge="1" parent="21" source="28" target="30"><mxGeometry width="50" height="50" as="geometry"><mxPoint x="57.37666666666655" y="80" as="sourcePoint"/><mxPoint x="57.38000000000011" y="100" as="targetPoint"/></mxGeometry></mxCell><mxCell id="32" value="Construct&lt;br&gt;computational&lt;br&gt;structure" style="endArrow=block;html=1;shape=flexArrow;endSize=2.658333333333333;targetPerimeterSpacing=0;sourcePerimeterSpacing=0;startSize=6;width=2.2222222222222223;endWidth=4.656607700312175;shadow=0;labelBackgroundColor=none;fontSize=12;opacity=75;entryX=0;entryY=0.5;entryDx=0;entryDy=0;" edge="1" parent="1" target="27"><mxGeometry x="-0.1491" y="-25" width="50" height="50" relative="1" as="geometry"><mxPoint x="298.5" y="1253" as="sourcePoint"/><mxPoint x="433.13999999999965" y="1258" as="targetPoint"/><mxPoint as="offset"/></mxGeometry></mxCell></root></mxGraphModel></diagram></mxfile>